<?xml version="1.0" standalone="no"?>
<svg xmlns="http://www.w3.org/2000/svg" width="1120" height="576.98046875"><g transform="translate(70,20)"><g class="x axis" transform="translate(0,400)" fill="none" font-size="10" font-family="sans-serif" text-anchor="middle"><path class="domain" stroke="#000" d="M0.5,6V0.5H1000.5V6"/><g class="tick" opacity="1" transform="translate(177.41935483870972,0)"><line stroke="#000" y2="6"/><text fill="#000" y="9" dy="-0.5em" dx="-.8em" style="text-anchor: end;" transform="rotate(-90)">LeFlore_County (n=18)</text></g><g class="tick" opacity="1" transform="translate(500,0)"><line stroke="#000" y2="6"/><text fill="#000" y="9" dy="-0.5em" dx="-.8em" style="text-anchor: end;" transform="rotate(-90)">Marshall_County (n=19)</text></g><g class="tick" opacity="1" transform="translate(822.5806451612904,0)"><line stroke="#000" y2="6"/><text fill="#000" y="9" dy="-0.5em" dx="-.8em" style="text-anchor: end;" transform="rotate(-90)">River_Valley (n=49)</text></g></g><g class="y axis" fill="none" font-size="10" font-family="sans-serif" text-anchor="end"><path class="domain" stroke="#000" d="M-6,400.5H0.5V0.5H-6"/><g class="tick" opacity="1" transform="translate(0,400.5)"><line stroke="#000" x2="-6"/><text fill="#000" x="-9" dy="0.32em">0.5</text></g><g class="tick" opacity="1" transform="translate(0,367.1666666666667)"><line stroke="#000" x2="-6"/><text fill="#000" x="-9" dy="0.32em">1.0</text></g><g class="tick" opacity="1" transform="translate(0,333.83333333333337)"><line stroke="#000" x2="-6"/><text fill="#000" x="-9" dy="0.32em">1.5</text></g><g class="tick" opacity="1" transform="translate(0,300.5)"><line stroke="#000" x2="-6"/><text fill="#000" x="-9" dy="0.32em">2.0</text></g><g class="tick" opacity="1" transform="translate(0,267.1666666666667)"><line stroke="#000" x2="-6"/><text fill="#000" x="-9" dy="0.32em">2.5</text></g><g class="tick" opacity="1" transform="translate(0,233.83333333333331)"><line stroke="#000" x2="-6"/><text fill="#000" x="-9" dy="0.32em">3.0</text></g><g class="tick" opacity="1" transform="translate(0,200.5)"><line stroke="#000" x2="-6"/><text fill="#000" x="-9" dy="0.32em">3.5</text></g><g class="tick" opacity="1" transform="translate(0,167.16666666666666)"><line stroke="#000" x2="-6"/><text fill="#000" x="-9" dy="0.32em">4.0</text></g><g class="tick" opacity="1" transform="translate(0,133.83333333333337)"><line stroke="#000" x2="-6"/><text fill="#000" x="-9" dy="0.32em">4.5</text></g><g class="tick" opacity="1" transform="translate(0,100.5)"><line stroke="#000" x2="-6"/><text fill="#000" x="-9" dy="0.32em">5.0</text></g><g class="tick" opacity="1" transform="translate(0,67.16666666666663)"><line stroke="#000" x2="-6"/><text fill="#000" x="-9" dy="0.32em">5.5</text></g><g class="tick" opacity="1" transform="translate(0,33.83333333333337)"><line stroke="#000" x2="-6"/><text fill="#000" x="-9" dy="0.32em">6.0</text></g><g class="tick" opacity="1" transform="translate(0,0.5)"><line stroke="#000" x2="-6"/><text fill="#000" x="-9" dy="0.32em">6.5</text></g></g><text class="x label" text-anchor="middle" transform="translate(500,546.98046875)" style="font: 12px sans-serif;">Group</text><text class="y label" text-anchor="middle" transform="translate(-50,200)rotate(-90)" style="font: 12px sans-serif;">shannon_entropy</text><line class="center" x1="177.41935483870972" y1="360.9124772866667" x2="177.41935483870972" y2="31.886511106666603" stroke-dasharray="2,2" stroke-width="1" stroke="black"/><line class="center" x1="500" y1="395.7930567733333" x2="500" y2="172.46654592000002" stroke-dasharray="2,2" stroke-width="1" stroke="black"/><line class="center" x1="822.5806451612904" y1="84.19904048666666" x2="822.5806451612904" y2="1.9148329333333436" stroke-dasharray="2,2" stroke-width="1" stroke="black"/><g class="outlier" transform="translate(177.41935483870972,0)"/><g class="outlier" transform="translate(500,0)"><circle r="4" stroke-width="1" stroke="black" stroke-opacity="0.3" fill="black" fill-opacity="0.33" cx="0" cy="56.54840572000006"/></g><g class="outlier" transform="translate(822.5806451612904,0)"><circle r="4" stroke-width="1" stroke="black" stroke-opacity="0.3" fill="black" fill-opacity="0.33" cx="0" cy="126.99192579333334"/><circle r="4" stroke-width="1" stroke="black" stroke-opacity="0.3" fill="black" fill-opacity="0.33" cx="0" cy="102.26139561333338"/></g><rect class="box" x="32.25806451612908" y="68.24942975833335" width="290.3225806451613" height="162.46400475833332" fill="white" stroke-width="1" stroke="black"/><rect class="box" x="354.8387096774194" y="220.86960536333333" width="290.3225806451613" height="86.92732813999999" fill="white" stroke-width="1" stroke="black"/><rect class="box" x="677.4193548387098" y="29.257499413333335" width="290.3225806451613" height="26.092927126666723" fill="white" stroke-width="1" stroke="black"/><line class="median" x1="32.25806451612908" y1="123.74882896999998" x2="322.58064516129036" y2="123.74882896999998" stroke-width="1" stroke="black"/><line class="median" x1="354.8387096774194" y1="263.86278340666667" x2="645.1612903225807" y2="263.86278340666667" stroke-width="1" stroke="black"/><line class="median" x1="677.4193548387098" y1="39.48968732666668" x2="967.741935483871" y2="39.48968732666668" stroke-width="1" stroke="black"/><g class="whisker" transform="translate(104.8387096774194,0)"><line class="median" x1="0" y1="360.9124772866667" x2="145.16129032258064" y2="360.9124772866667" stroke-width="1" stroke="black"/><line class="median" x1="0" y1="31.886511106666603" x2="145.16129032258064" y2="31.886511106666603" stroke-width="1" stroke="black"/></g><g class="whisker" transform="translate(427.4193548387097,0)"><line class="median" x1="0" y1="395.7930567733333" x2="145.16129032258064" y2="395.7930567733333" stroke-width="1" stroke="black"/><line class="median" x1="0" y1="172.46654592000002" x2="145.16129032258064" y2="172.46654592000002" stroke-width="1" stroke="black"/></g><g class="whisker" transform="translate(750.0000000000001,0)"><line class="median" x1="0" y1="84.19904048666666" x2="145.16129032258064" y2="84.19904048666666" stroke-width="1" stroke="black"/><line class="median" x1="0" y1="1.9148329333333436" x2="145.16129032258064" y2="1.9148329333333436" stroke-width="1" stroke="black"/></g></g></svg>