<?xml version="1.0" standalone="no"?>
<svg xmlns="http://www.w3.org/2000/svg" width="1120" height="576.98046875"><g transform="translate(70,20)"><g class="x axis" transform="translate(0,400)" fill="none" font-size="10" font-family="sans-serif" text-anchor="middle"><path class="domain" stroke="#000" d="M0.5,6V0.5H1000.5V6"/><g class="tick" opacity="1" transform="translate(177.41935483870972,0)"><line stroke="#000" y2="6"/><text fill="#000" y="9" dy="-0.5em" dx="-.8em" style="text-anchor: end;" transform="rotate(-90)">LeFlore_County (n=18)</text></g><g class="tick" opacity="1" transform="translate(500,0)"><line stroke="#000" y2="6"/><text fill="#000" y="9" dy="-0.5em" dx="-.8em" style="text-anchor: end;" transform="rotate(-90)">Marshall_County (n=19)</text></g><g class="tick" opacity="1" transform="translate(822.5806451612904,0)"><line stroke="#000" y2="6"/><text fill="#000" y="9" dy="-0.5em" dx="-.8em" style="text-anchor: end;" transform="rotate(-90)">River_Valley (n=49)</text></g></g><g class="y axis" fill="none" font-size="10" font-family="sans-serif" text-anchor="end"><path class="domain" stroke="#000" d="M-6,400.5H0.5V0.5H-6"/><g class="tick" opacity="1" transform="translate(0,400.5)"><line stroke="#000" x2="-6"/><text fill="#000" x="-9" dy="0.32em">0</text></g><g class="tick" opacity="1" transform="translate(0,364.1363636363636)"><line stroke="#000" x2="-6"/><text fill="#000" x="-9" dy="0.32em">2</text></g><g class="tick" opacity="1" transform="translate(0,327.77272727272725)"><line stroke="#000" x2="-6"/><text fill="#000" x="-9" dy="0.32em">4</text></g><g class="tick" opacity="1" transform="translate(0,291.40909090909093)"><line stroke="#000" x2="-6"/><text fill="#000" x="-9" dy="0.32em">6</text></g><g class="tick" opacity="1" transform="translate(0,255.04545454545453)"><line stroke="#000" x2="-6"/><text fill="#000" x="-9" dy="0.32em">8</text></g><g class="tick" opacity="1" transform="translate(0,218.6818181818182)"><line stroke="#000" x2="-6"/><text fill="#000" x="-9" dy="0.32em">10</text></g><g class="tick" opacity="1" transform="translate(0,182.31818181818184)"><line stroke="#000" x2="-6"/><text fill="#000" x="-9" dy="0.32em">12</text></g><g class="tick" opacity="1" transform="translate(0,145.95454545454547)"><line stroke="#000" x2="-6"/><text fill="#000" x="-9" dy="0.32em">14</text></g><g class="tick" opacity="1" transform="translate(0,109.59090909090907)"><line stroke="#000" x2="-6"/><text fill="#000" x="-9" dy="0.32em">16</text></g><g class="tick" opacity="1" transform="translate(0,73.22727272727269)"><line stroke="#000" x2="-6"/><text fill="#000" x="-9" dy="0.32em">18</text></g><g class="tick" opacity="1" transform="translate(0,36.863636363636374)"><line stroke="#000" x2="-6"/><text fill="#000" x="-9" dy="0.32em">20</text></g><g class="tick" opacity="1" transform="translate(0,0.5)"><line stroke="#000" x2="-6"/><text fill="#000" x="-9" dy="0.32em">22</text></g></g><text class="x label" text-anchor="middle" transform="translate(500,546.98046875)" style="font: 12px sans-serif;">Group</text><text class="y label" text-anchor="middle" transform="translate(-50,200)rotate(-90)" style="font: 12px sans-serif;">faith_pd</text><line class="center" x1="177.41935483870972" y1="388.8785206727273" x2="177.41935483870972" y2="156.1126532109091" stroke-dasharray="2,2" stroke-width="1" stroke="black"/><line class="center" x1="500" y1="387.2270669690909" x2="500" y2="333.17084692363636" stroke-dasharray="2,2" stroke-width="1" stroke="black"/><line class="center" x1="822.5806451612904" y1="367.59863094181816" x2="822.5806451612904" y2="269.0880554309091" stroke-dasharray="2,2" stroke-width="1" stroke="black"/><g class="outlier" transform="translate(177.41935483870972,0)"><circle r="4" stroke-width="1" stroke="black" stroke-opacity="0.3" fill="black" fill-opacity="0.33" cx="0" cy="31.742494914545432"/></g><g class="outlier" transform="translate(500,0)"><circle r="4" stroke-width="1" stroke="black" stroke-opacity="0.3" fill="black" fill-opacity="0.33" cx="0" cy="291.3289321945455"/><circle r="4" stroke-width="1" stroke="black" stroke-opacity="0.3" fill="black" fill-opacity="0.33" cx="0" cy="264.31110402"/></g><g class="outlier" transform="translate(822.5806451612904,0)"/><rect class="box" x="32.25806451612908" y="270.97456985227274" width="290.3225806451613" height="85.32711908454547" fill="white" stroke-width="1" stroke="black"/><rect class="box" x="354.8387096774194" y="348.14993386727275" width="290.3225806451613" height="33.51472080636364" fill="white" stroke-width="1" stroke="black"/><rect class="box" x="677.4193548387098" y="311.1392129472727" width="290.3225806451613" height="32.9711904490909" fill="white" stroke-width="1" stroke="black"/><line class="median" x1="32.25806451612908" y1="314.97462347636366" x2="322.58064516129036" y2="314.97462347636366" stroke-width="1" stroke="black"/><line class="median" x1="354.8387096774194" y1="369.32862805818183" x2="645.1612903225807" y2="369.32862805818183" stroke-width="1" stroke="black"/><line class="median" x1="677.4193548387098" y1="333.4371655963636" x2="967.741935483871" y2="333.4371655963636" stroke-width="1" stroke="black"/><g class="whisker" transform="translate(104.8387096774194,0)"><line class="median" x1="0" y1="388.8785206727273" x2="145.16129032258064" y2="388.8785206727273" stroke-width="1" stroke="black"/><line class="median" x1="0" y1="156.1126532109091" x2="145.16129032258064" y2="156.1126532109091" stroke-width="1" stroke="black"/></g><g class="whisker" transform="translate(427.4193548387097,0)"><line class="median" x1="0" y1="387.2270669690909" x2="145.16129032258064" y2="387.2270669690909" stroke-width="1" stroke="black"/><line class="median" x1="0" y1="333.17084692363636" x2="145.16129032258064" y2="333.17084692363636" stroke-width="1" stroke="black"/></g><g class="whisker" transform="translate(750.0000000000001,0)"><line class="median" x1="0" y1="367.59863094181816" x2="145.16129032258064" y2="367.59863094181816" stroke-width="1" stroke="black"/><line class="median" x1="0" y1="269.0880554309091" x2="145.16129032258064" y2="269.0880554309091" stroke-width="1" stroke="black"/></g></g></svg>